<?xml version="1.0" standalone="no"?>
<!DOCTYPE svg PUBLIC "-//W3C//DTD SVG 20010904//EN"
 "http://www.w3.org/TR/2001/REC-SVG-20010904/DTD/svg10.dtd">
<svg version="1.0" xmlns="http://www.w3.org/2000/svg"
 width="200.000000pt" height="200.000000pt" viewBox="0 0 200.000000 200.000000"
 preserveAspectRatio="xMidYMid meet">

<g transform="translate(0.000000,200.000000) scale(0.100000,-0.100000)"
fill="#000000" stroke="none">
<path d="M0 1000 l0 -1000 1000 0 1000 0 0 1000 0 1000 -1000 0 -1000 0 0
-1000z m826 266 l449 -514 5 507 c3 278 7 507 8 509 1 1 24 2 51 2 l49 0 -6
-568 -5 -569 84 -93 c46 -52 101 -112 121 -134 l37 -41 1 530 c0 292 3 608 7
703 l6 173 46 -3 45 -3 -3 -775 c-1 -426 -5 -778 -7 -782 -3 -5 -23 -8 -44 -8
-44 0 48 -100 -839 905 -243 275 -446 502 -451 503 -6 2 -10 -253 -10 -697 l0
-701 -50 0 -50 0 0 583 c0 320 3 673 7 785 l6 202 47 0 46 0 450 -514z"/>
</g>
</svg>
